<svg xml:space="preserve" xmlns:xlink="http://www.w3.org/1999/xlink" style="enable-background:new 0 0 141 45;" version="1.1" viewBox="0 0 141 45" x="0px" xmlns="http://www.w3.org/2000/svg" y="0px">
								<style type="text/css">
								  .colabappstore {
									fill: #ffffff;
								  }
								</style>
								<g>
								  <path class="colabappstore" d="M133.3,2.8c2.1,0,3.8,1.7,3.8,3.8l0,30.5c0,2.1-1.7,3.8-3.8,3.8H7.8c-2.1,0-3.8-1.7-3.8-3.8V6.7
											c0-2.1,1.7-3.8,3.8-3.8H133.3 M133.3,1.8H7.8C5.1,1.8,2.9,4,2.9,6.7v30.5c0,2.7,2.2,4.8,4.8,4.8h125.5c2.7,0,4.8-2.2,4.8-4.8
											l0-30.5C138.1,4,135.9,1.8,133.3,1.8L133.3,1.8z"></path>
								  <g>
									<g>
									  <g>
										<path class="colabappstore" d="M33.2,21.7c0-3.2,2.6-4.8,2.8-4.9c-1.5-2.2-3.9-2.5-4.7-2.5c-2-0.2-3.9,1.2-4.9,1.2c-1,0-2.6-1.2-4.2-1.1
												  c-2.1,0-4.1,1.3-5.2,3.2c-2.3,3.9-0.6,9.7,1.6,12.9c1.1,1.6,2.4,3.3,4,3.2c1.6-0.1,2.2-1,4.2-1c1.9,0,2.5,1,4.2,1
												  c1.7,0,2.8-1.6,3.9-3.1c1.3-1.8,1.8-3.5,1.8-3.6C36.6,26.9,33.2,25.6,33.2,21.7z"></path>
										<path class="colabappstore" d="M30,12.2c0.9-1.1,1.5-2.6,1.3-4.1C30,8.2,28.4,9,27.5,10.1C26.7,11,26,12.6,26.2,14
												  C27.6,14.1,29.1,13.3,30,12.2z"></path>
									  </g>
									</g>
								  </g>
								  <g>
									<g>
									  <path class="colabappstore" d="M56.8,33.4h-2.3l-1.2-3.9h-4.3l-1.2,3.9h-2.2l4.3-13.3h2.6L56.8,33.4z M52.9,27.9l-1.1-3.5
												c-0.1-0.4-0.3-1.2-0.7-2.5h0c-0.1,0.6-0.3,1.4-0.6,2.5l-1.1,3.5H52.9z"></path>
									  <path class="colabappstore" d="M67.8,28.5c0,1.6-0.4,2.9-1.3,3.9c-0.8,0.8-1.8,1.3-2.9,1.3c-1.3,0-2.2-0.5-2.7-1.4h0v5.1h-2.1V27
												c0-1,0-2.1-0.1-3.2h1.9l0.1,1.5h0c0.7-1.1,1.8-1.7,3.2-1.7c1.1,0,2.1,0.4,2.8,1.3C67.4,25.9,67.8,27.1,67.8,28.5z M65.6,28.6
												c0-0.9-0.2-1.7-0.6-2.3c-0.5-0.6-1.1-0.9-1.9-0.9c-0.5,0-1,0.2-1.4,0.5c-0.4,0.3-0.7,0.8-0.8,1.4c-0.1,0.3-0.1,0.5-0.1,0.6v1.6
												c0,0.7,0.2,1.3,0.6,1.8c0.4,0.5,1,0.7,1.7,0.7c0.8,0,1.4-0.3,1.9-0.9C65.4,30.4,65.6,29.6,65.6,28.6z"></path>
									  <path class="colabappstore" d="M78.8,28.5c0,1.6-0.4,2.9-1.3,3.9c-0.8,0.8-1.8,1.3-2.9,1.3c-1.3,0-2.2-0.5-2.7-1.4h0v5.1h-2.1V27
												c0-1,0-2.1-0.1-3.2h1.9l0.1,1.5h0c0.7-1.1,1.8-1.7,3.2-1.7c1.1,0,2.1,0.4,2.8,1.3C78.4,25.9,78.8,27.1,78.8,28.5z M76.7,28.6
												c0-0.9-0.2-1.7-0.6-2.3c-0.5-0.6-1.1-0.9-1.9-0.9c-0.5,0-1,0.2-1.4,0.5c-0.4,0.3-0.7,0.8-0.8,1.4c-0.1,0.3-0.1,0.5-0.1,0.6v1.6
												c0,0.7,0.2,1.3,0.6,1.8c0.4,0.5,1,0.7,1.7,0.7c0.8,0,1.4-0.3,1.9-0.9C76.4,30.4,76.7,29.6,76.7,28.6z"></path>
									  <path class="colabappstore" d="M91.2,29.7c0,1.1-0.4,2.1-1.2,2.8c-0.9,0.8-2.1,1.2-3.6,1.2c-1.4,0-2.6-0.3-3.4-0.8l0.5-1.8
												c0.9,0.6,2,0.9,3.1,0.9c0.8,0,1.4-0.2,1.9-0.5c0.4-0.4,0.7-0.8,0.7-1.5c0-0.5-0.2-1-0.6-1.4c-0.4-0.4-1-0.7-1.8-1
												c-2.3-0.9-3.5-2.1-3.5-3.8c0-1.1,0.4-2,1.2-2.7c0.8-0.7,1.9-1,3.3-1c1.2,0,2.2,0.2,3,0.6l-0.5,1.7c-0.8-0.4-1.6-0.6-2.5-0.6
												c-0.8,0-1.3,0.2-1.8,0.6c-0.4,0.3-0.5,0.7-0.5,1.2c0,0.5,0.2,1,0.6,1.3c0.4,0.3,1,0.7,1.9,1c1.1,0.5,2,1,2.5,1.6
												C90.9,28,91.2,28.8,91.2,29.7z"></path>
									  <path class="colabappstore" d="M98.2,25.4h-2.3v4.7c0,1.2,0.4,1.8,1.2,1.8c0.4,0,0.7,0,0.9-0.1l0.1,1.6c-0.4,0.2-1,0.2-1.7,0.2
												c-0.8,0-1.5-0.3-2-0.8c-0.5-0.5-0.7-1.4-0.7-2.6v-4.8h-1.4v-1.6h1.4v-1.8l2.1-0.6v2.4h2.3V25.4z"></path>
									  <path class="colabappstore" d="M108.8,28.6c0,1.5-0.4,2.7-1.3,3.6c-0.9,1-2.1,1.5-3.5,1.5c-1.4,0-2.5-0.5-3.4-1.4c-0.8-0.9-1.3-2.1-1.3-3.5
												c0-1.5,0.4-2.7,1.3-3.7c0.9-0.9,2-1.4,3.5-1.4c1.4,0,2.5,0.5,3.4,1.4C108.4,25.9,108.8,27.1,108.8,28.6z M106.6,28.6
												c0-0.9-0.2-1.6-0.6-2.3c-0.4-0.8-1.1-1.1-1.9-1.1c-0.9,0-1.5,0.4-2,1.1c-0.4,0.6-0.6,1.4-0.6,2.3c0,0.9,0.2,1.6,0.6,2.3
												c0.5,0.8,1.1,1.1,1.9,1.1c0.8,0,1.5-0.4,1.9-1.2C106.4,30.3,106.6,29.5,106.6,28.6z"></path>
									  <path class="colabappstore" d="M115.7,25.7c-0.2,0-0.4-0.1-0.7-0.1c-0.8,0-1.3,0.3-1.7,0.8c-0.4,0.5-0.5,1.1-0.5,1.9v5h-2.1l0-6.6
												c0-1.1,0-2.1-0.1-3h1.9l0.1,1.8h0.1c0.2-0.6,0.6-1.1,1.1-1.5c0.5-0.3,1-0.5,1.5-0.5c0.2,0,0.4,0,0.5,0V25.7z"></path>
									  <path class="colabappstore" d="M125.3,28.2c0,0.4,0,0.7-0.1,1h-6.4c0,0.9,0.3,1.7,0.9,2.2c0.5,0.4,1.2,0.7,2.1,0.7c0.9,0,1.8-0.2,2.6-0.5
												l0.3,1.5c-0.9,0.4-2,0.6-3.2,0.6c-1.5,0-2.7-0.4-3.5-1.3c-0.8-0.9-1.3-2.1-1.3-3.5c0-1.4,0.4-2.7,1.2-3.6c0.8-1,1.9-1.5,3.4-1.5
												c1.4,0,2.4,0.5,3.1,1.5C125,26,125.3,27,125.3,28.2z M123.3,27.6c0-0.6-0.1-1.2-0.4-1.6c-0.4-0.6-0.9-0.9-1.7-0.9
												c-0.7,0-1.3,0.3-1.7,0.9c-0.4,0.5-0.6,1-0.6,1.7L123.3,27.6L123.3,27.6z"></path>
									</g>
								  </g>
								  <g>
									<g>
									  <g>
										<path class="colabappstore" d="M51.1,13.5c0,0.5-0.2,1-0.6,1.3c-0.5,0.4-1.2,0.6-2.3,0.6c-0.5,0-1,0-1.4-0.1V8.9c0.4-0.1,1-0.1,1.6-0.1
												  c0.8,0,1.4,0.1,1.8,0.4c0.4,0.3,0.6,0.7,0.6,1.2c0,0.3-0.1,0.6-0.3,0.8c-0.2,0.3-0.5,0.4-0.8,0.6v0c0.4,0.1,0.7,0.3,0.9,0.5
												  C51,12.7,51.1,13.1,51.1,13.5z M49.8,10.5c0-0.6-0.4-1-1.3-1c-0.3,0-0.5,0-0.7,0.1v1.9h0.6c0.4,0,0.7-0.1,1-0.3
												  C49.7,11.1,49.8,10.8,49.8,10.5z M50,13.5c0-0.4-0.2-0.7-0.5-0.9c-0.3-0.2-0.6-0.3-1.1-0.3h-0.6v2.3c0.1,0,0.3,0,0.6,0
												  c0.4,0,0.8-0.1,1.1-0.3C49.9,14.2,50,13.9,50,13.5z"></path>
										<path class="colabappstore" d="M56.2,15.4h-0.9l-0.1-0.5h0c-0.3,0.4-0.8,0.6-1.4,0.6c-0.4,0-0.8-0.1-1.1-0.4c-0.2-0.3-0.4-0.6-0.4-1
												  c0-0.6,0.2-1,0.7-1.3c0.5-0.3,1.2-0.5,2-0.4v-0.1c0-0.6-0.3-0.9-1-0.9c-0.5,0-0.9,0.1-1.2,0.3L52.7,11c0.4-0.3,1-0.4,1.6-0.4
												  c1.2,0,1.8,0.7,1.8,2v1.7C56.2,14.7,56.2,15.1,56.2,15.4z M55.1,13.7V13c-1.2,0-1.7,0.3-1.7,1c0,0.2,0.1,0.4,0.2,0.6
												  c0.1,0.1,0.3,0.2,0.5,0.2c0.2,0,0.4-0.1,0.6-0.2c0.2-0.1,0.3-0.3,0.4-0.6C55.1,13.9,55.1,13.8,55.1,13.7z"></path>
										<path class="colabappstore" d="M59.2,9.2c0,0.2-0.1,0.3-0.2,0.5c-0.1,0.1-0.3,0.2-0.5,0.2c-0.2,0-0.3-0.1-0.4-0.2
												  c-0.1-0.1-0.2-0.3-0.2-0.5c0-0.2,0.1-0.3,0.2-0.4c0.1-0.1,0.3-0.2,0.5-0.2c0.2,0,0.3,0.1,0.5,0.2C59.1,8.9,59.2,9.1,59.2,9.2z
												  M59,15.4h-1v-4.7h1V15.4z"></path>
										<path class="colabappstore" d="M64.7,15.4h-1.2l-0.6-1c-0.1-0.2-0.3-0.5-0.4-0.8h0c-0.1,0.2-0.2,0.4-0.4,0.8l-0.6,1h-1.1l1.6-2.4l-1.6-2.3
												  h1.2l0.6,0.9c0.1,0.2,0.3,0.4,0.4,0.7h0c0.1-0.3,0.3-0.5,0.4-0.8l0.6-0.9h1.1l-1.6,2.3L64.7,15.4z"></path>
										<path class="colabappstore" d="M69.6,15.4h-0.9l-0.1-0.5h0c-0.3,0.4-0.8,0.6-1.4,0.6c-0.4,0-0.8-0.1-1.1-0.4c-0.2-0.3-0.4-0.6-0.4-1
												  c0-0.6,0.2-1,0.7-1.3c0.5-0.3,1.2-0.5,2-0.4v-0.1c0-0.6-0.3-0.9-1-0.9c-0.5,0-0.9,0.1-1.2,0.3L66,11c0.4-0.3,1-0.4,1.6-0.4
												  c1.2,0,1.8,0.7,1.8,2v1.7C69.5,14.7,69.5,15.1,69.6,15.4z M68.5,13.7V13c-1.2,0-1.7,0.3-1.7,1c0,0.2,0.1,0.4,0.2,0.6
												  c0.1,0.1,0.3,0.2,0.5,0.2c0.2,0,0.4-0.1,0.6-0.2c0.2-0.1,0.3-0.3,0.4-0.6C68.5,13.9,68.5,13.8,68.5,13.7z"></path>
										<path class="colabappstore" d="M73.8,11.6c-0.1,0-0.2,0-0.3,0c-0.4,0-0.7,0.1-0.9,0.4c-0.2,0.2-0.3,0.6-0.3,0.9v2.5h-1l0-3.2
												  c0-0.5,0-1,0-1.5h0.9l0,0.9h0c0.1-0.3,0.3-0.6,0.5-0.7c0.2-0.2,0.5-0.3,0.8-0.3c0.1,0,0.2,0,0.3,0V11.6z"></path>
										<path class="colabappstore" d="M82.1,15.4h-1v-2.7c0-0.8-0.3-1.2-0.9-1.2c-0.3,0-0.6,0.1-0.8,0.3C79.1,12,79,12.3,79,12.6v2.8h-1V12
												  c0-0.4,0-0.9,0-1.3h0.9l0,0.7h0c0.1-0.2,0.3-0.4,0.5-0.6c0.3-0.2,0.6-0.3,0.9-0.3c0.4,0,0.8,0.1,1.1,0.4
												  c0.4,0.3,0.5,0.9,0.5,1.6V15.4z"></path>
										<path class="colabappstore" d="M87.5,15.4h-0.9l-0.1-0.5h0c-0.3,0.4-0.8,0.6-1.4,0.6c-0.4,0-0.8-0.1-1.1-0.4c-0.2-0.3-0.4-0.6-0.4-1
												  c0-0.6,0.2-1,0.7-1.3c0.5-0.3,1.2-0.5,2-0.4v-0.1c0-0.6-0.3-0.9-1-0.9c-0.5,0-0.9,0.1-1.2,0.3L83.9,11c0.4-0.3,1-0.4,1.6-0.4
												  c1.2,0,1.8,0.7,1.8,2v1.7C87.4,14.7,87.4,15.1,87.5,15.4z M86.4,13.7V13c-1.2,0-1.7,0.3-1.7,1c0,0.2,0.1,0.4,0.2,0.6
												  c0.1,0.1,0.3,0.2,0.5,0.2c0.2,0,0.4-0.1,0.6-0.2c0.2-0.1,0.3-0.3,0.4-0.6C86.4,13.9,86.4,13.8,86.4,13.7z"></path>
									  </g>
									</g>
								  </g>
								</g>
							</svg>