<svg xml:space="preserve" xmlns:xlink="http://www.w3.org/1999/xlink" style="enable-background:new 0 0 141 45;" version="1.1" viewBox="0 0 141 45" x="0px" xmlns="http://www.w3.org/2000/svg" y="0px">
								<style type="text/css">
								  .colab-g-play .st0 {
									fill: #ffffff;
								  }
					  
								  .colab-g-play .st1 {
									opacity: 0.2;
									enable-background: new;
								  }
					  
								  .colab-g-play .st2 {
									opacity: 0.12;
									enable-background: new;
								  }
					  
								  .colab-g-play .st3 {
									opacity: 0.25;
									enable-background: new;
								  }
								</style>
								<g class="colab-g-play">
								  <g>
									<path class="st0" d="M133.1,3.4c2.2,0,4,1.8,4,4v30c0,2.2-1.8,4-4,4H8.1c-2.2,0-4-1.8-4-4v-30c0-2.2,1.8-4,4-4H133.1 M133.1,2.4
											  H8.1c-2.7,0-5,2.3-5,5v30c0,2.8,2.2,5,5,5h125c2.8,0,5-2.2,5-5v-30C138.1,4.6,135.8,2.4,133.1,2.4L133.1,2.4z"></path>
								  </g>
								  <path class="st0" d="M71.2,24.2c-2.4,0-4.3,1.8-4.3,4.3c0,2.4,1.9,4.3,4.3,4.3s4.3-1.8,4.3-4.3C75.5,25.9,73.5,24.2,71.2,24.2z
											M71.2,31c-1.3,0-2.4-1.1-2.4-2.6c0-1.5,1.1-2.6,2.4-2.6c1.3,0,2.4,1,2.4,2.6C73.6,29.9,72.5,31,71.2,31z M61.9,24.2
											c-2.4,0-4.3,1.8-4.3,4.3c0,2.4,1.9,4.3,4.3,4.3c2.4,0,4.3-1.8,4.3-4.3C66.1,25.9,64.2,24.2,61.9,24.2z M61.9,31
											c-1.3,0-2.4-1.1-2.4-2.6c0-1.5,1.1-2.6,2.4-2.6c1.3,0,2.4,1,2.4,2.6C64.3,29.9,63.2,31,61.9,31z M50.8,25.5v1.8h4.3
											c-0.1,1-0.5,1.8-1,2.3c-0.6,0.6-1.6,1.3-3.3,1.3c-2.7,0-4.7-2.1-4.7-4.8s2.1-4.8,4.7-4.8c1.4,0,2.5,0.6,3.3,1.3l1.3-1.3
											c-1.1-1-2.5-1.8-4.5-1.8c-3.6,0-6.7,3-6.7,6.6c0,3.6,3.1,6.6,6.7,6.6c2,0,3.4-0.6,4.6-1.9c1.2-1.2,1.6-2.9,1.6-4.2
											c0-0.4,0-0.8-0.1-1.1H50.8z M96.1,26.9c-0.4-1-1.4-2.7-3.6-2.7c-2.2,0-4,1.7-4,4.3c0,2.4,1.8,4.3,4.2,4.3c1.9,0,3.1-1.2,3.5-1.9
											l-1.5-1c-0.5,0.7-1.1,1.2-2.1,1.2c-1,0-1.6-0.4-2.1-1.3l5.7-2.4L96.1,26.9z M90.3,28.3c0-1.6,1.3-2.5,2.2-2.5
											c0.7,0,1.4,0.4,1.6,0.9L90.3,28.3z M85.7,32.4h1.9V19.9h-1.9V32.4z M82.6,25.1L82.6,25.1c-0.5-0.5-1.3-1-2.3-1
											c-2.1,0-4.1,1.9-4.1,4.3c0,2.4,1.9,4.2,4.1,4.2c1,0,1.8-0.5,2.2-1h0.1v0.6c0,1.6-0.9,2.5-2.3,2.5c-1.1,0-1.9-0.8-2.1-1.5L76.6,34
											c0.5,1.1,1.7,2.5,3.8,2.5c2.2,0,4-1.3,4-4.4v-7.6h-1.8V25.1z M80.5,31c-1.3,0-2.4-1.1-2.4-2.6c0-1.5,1.1-2.6,2.4-2.6
											c1.3,0,2.3,1.1,2.3,2.6C82.8,29.9,81.8,31,80.5,31z M104.9,19.9h-4.5v12.5h1.9v-4.7h2.6c2.1,0,4.1-1.5,4.1-3.9
											C109,21.4,106.9,19.9,104.9,19.9z M104.9,25.9h-2.7v-4.3h2.7c1.4,0,2.2,1.2,2.2,2.1C107.1,24.7,106.3,25.9,104.9,25.9z M116.4,24.1
											c-1.4,0-2.8,0.6-3.3,1.9l1.7,0.7c0.4-0.7,1-0.9,1.7-0.9c1,0,1.9,0.6,2,1.6v0.1c-0.3-0.2-1.1-0.5-1.9-0.5c-1.8,0-3.6,1-3.6,2.8
											c0,1.7,1.5,2.8,3.1,2.8c1.3,0,1.9-0.6,2.4-1.2h0.1v1h1.8v-4.8C120.2,25.4,118.6,24.1,116.4,24.1z M116.2,31c-0.6,0-1.5-0.3-1.5-1.1
											c0-1,1.1-1.3,2-1.3c0.8,0,1.2,0.2,1.7,0.4C118.3,30.2,117.3,31,116.2,31z M126.8,24.4l-2.1,5.4h-0.1l-2.2-5.4h-2l3.3,7.6l-1.9,4.2
											h1.9l5.1-11.8H126.8z M110,32.4h1.9V19.9H110V32.4z"></path>
								  <g>
									<g>
									  <path class="st0" d="M13.3,10.3C13.2,10.3,13.2,10.3,13.3,10.3L13.3,10.3c-0.1,0.1-0.1,0.1-0.1,0.1c0,0-0.1,0.1-0.1,0.2
												c0,0,0,0.1,0,0.1c0,0.1-0.1,0.2-0.1,0.3c0,0.1,0,0.3,0,0.4v22.1c0,0.4,0.1,0.8,0.2,1.1l0,0l12.1-12.1L13.3,10.3z"></path>
									</g>
									<g>
									  <path class="st0" d="M36.1,22.4c0,0.5-0.3,1-1.1,1.5l-4.3,2.5l-0.1-0.1l-3.8-3.8l3.8-3.8l0.1-0.1l4.3,2.5
												C35.8,21.3,36.1,21.9,36.1,22.4z"></path>
									</g>
									<g>
									  <path class="st0" d="M29.7,26.7l-3.6-3.6l-12,12L14,35.2c0,0,0.1,0,0.2,0h0c0,0,0.1,0,0.1,0c0,0,0,0,0.1,0h0.1c0,0,0,0,0,0h0.1
												c0.1,0,0.1,0,0.2,0c0,0,0,0,0.1,0c0,0,0,0,0.1,0c0.1,0,0.2-0.1,0.3-0.1c0.1,0,0.2-0.1,0.3-0.1l14.3-8.1L29.7,26.7z"></path>
									</g>
									<g>
									  <path class="st0" d="M15.6,9.9L29.8,18l-3.7,3.7l-12-12L14,9.6c0,0,0.1,0,0.1,0C14.6,9.5,15,9.6,15.6,9.9z"></path>
									</g>
									<g>
									  <g class="st1">
										<path class="st0" d="M29.8,26.8l-14.3,8.1c-0.1,0.1-0.2,0.1-0.3,0.1c-0.1,0-0.2,0.1-0.3,0.1c0,0,0,0-0.1,0c0,0,0,0-0.1,0
												  c-0.1,0-0.1,0-0.2,0h-0.1c0,0,0,0,0,0c0,0-0.1,0-0.1,0c0,0,0,0-0.1,0c0,0,0,0-0.1,0c0,0-0.1,0-0.1,0h0c-0.1,0-0.1,0-0.2,0
												  c0,0-0.1,0-0.1,0c0,0,0.1,0,0.1,0l0.1-0.1c0.4,0.1,0.9,0,1.4-0.3l14.2-8L29.8,26.8z"></path>
									  </g>
									  <g class="st2">
										<path class="st0" d="M13,33.3c0,0.5,0.1,0.9,0.3,1.2l0,0c-0.2-0.3-0.2-0.6-0.2-1.1V33.3z"></path>
									  </g>
									</g>
									<g class="st2">
									  <path class="st0" d="M36.1,22.4c0,0.5-0.3,1-1.1,1.5l-4.3,2.5l-0.1-0.1l4.4-2.5C35.7,23.3,36.1,22.9,36.1,22.4z"></path>
									</g>
									<g class="st3">
									  <path class="st0" d="M13.3,10.3C13.1,10.6,13,11,13,11.5v-0.1c0-0.1,0-0.3,0-0.4c0-0.1,0-0.2,0.1-0.3c0,0,0-0.1,0-0.1
												C13.2,10.5,13.2,10.4,13.3,10.3C13.2,10.4,13.2,10.4,13.3,10.3L13.3,10.3C13.2,10.3,13.2,10.3,13.3,10.3L13.3,10.3
												C13.3,10.2,13.3,10.2,13.3,10.3C13.3,10.2,13.3,10.2,13.3,10.3L13.3,10.3z"></path>
									  <path class="st0" d="M15.6,9.9L29.8,18l-0.1,0.1l-14.2-8c-0.5-0.3-1-0.4-1.4-0.3L14,9.6c0,0,0.1,0,0.1,0
												C14.6,9.5,15,9.6,15.6,9.9z"></path>
									  <path class="st0" d="M36.1,22.4c-0.1-0.5-0.4-0.9-1.1-1.3l-4.4-2.5l0.1-0.1l4.3,2.5C35.8,21.3,36.1,21.9,36.1,22.4z"></path>
									</g>
								  </g>
								  <g>
									<path class="st0" d="M44.4,15.4v-6h1.8c0.9,0,1.7,0.3,2.2,0.8c0.6,0.6,0.8,1.3,0.8,2.2c0,0.9-0.3,1.6-0.8,2.2
											  c-0.6,0.6-1.3,0.8-2.2,0.8H44.4z M45.2,14.7h1.1c0.7,0,1.2-0.2,1.6-0.6s0.6-1,0.6-1.7c0-0.7-0.2-1.3-0.6-1.7
											  c-0.4-0.4-1-0.6-1.6-0.6h-1.1V14.7z"></path>
									<path class="st0" d="M50.4,15.4v-6h0.8v6H50.4z"></path>
									<path class="st0" d="M54.2,15.5c-0.4,0-0.9-0.1-1.3-0.4c-0.4-0.3-0.7-0.7-0.8-1.2l0.7-0.3c0.1,0.3,0.3,0.6,0.5,0.8
											  c0.3,0.2,0.6,0.3,0.9,0.3c0.3,0,0.6-0.1,0.9-0.3c0.2-0.2,0.4-0.4,0.4-0.7c0-0.3-0.1-0.6-0.4-0.8c-0.2-0.2-0.6-0.3-1.1-0.5
											  c-0.5-0.2-0.9-0.4-1.2-0.6c-0.3-0.3-0.4-0.6-0.4-1c0-0.4,0.2-0.8,0.5-1.1c0.3-0.3,0.8-0.5,1.3-0.5c0.5,0,0.9,0.1,1.2,0.4
											  c0.3,0.3,0.5,0.5,0.6,0.8l-0.7,0.3c-0.1-0.2-0.2-0.4-0.4-0.5c-0.2-0.2-0.5-0.2-0.8-0.2c-0.3,0-0.5,0.1-0.8,0.2
											  c-0.2,0.2-0.3,0.4-0.3,0.6c0,0.2,0.1,0.4,0.3,0.6c0.2,0.2,0.5,0.3,0.9,0.4c0.3,0.1,0.5,0.2,0.7,0.3c0.2,0.1,0.4,0.2,0.6,0.4
											  c0.2,0.1,0.4,0.3,0.5,0.6c0.1,0.2,0.2,0.5,0.2,0.8c0,0.3-0.1,0.5-0.2,0.8c-0.1,0.2-0.3,0.4-0.5,0.5c-0.2,0.1-0.4,0.2-0.6,0.3
											  C54.7,15.5,54.4,15.5,54.2,15.5z"></path>
									<path class="st0" d="M58.1,15.4h-0.8v-6h2c0.5,0,0.9,0.2,1.3,0.5c0.4,0.3,0.6,0.8,0.6,1.3c0,0.5-0.2,0.9-0.6,1.3
											  c-0.4,0.3-0.8,0.5-1.3,0.5h-1.3V15.4z M58.1,12.2h1.3c0.3,0,0.6-0.1,0.8-0.3c0.2-0.2,0.3-0.5,0.3-0.7s-0.1-0.5-0.3-0.7
											  c-0.2-0.2-0.5-0.3-0.8-0.3h-1.3V12.2z"></path>
									<path class="st0" d="M67.1,14.6c-0.6,0.6-1.3,0.9-2.2,0.9c-0.9,0-1.6-0.3-2.2-0.9c-0.6-0.6-0.9-1.3-0.9-2.2c0-0.9,0.3-1.6,0.9-2.2
											  c0.6-0.6,1.3-0.9,2.2-0.9c0.9,0,1.6,0.3,2.2,0.9c0.6,0.6,0.9,1.3,0.9,2.2C68,13.3,67.7,14,67.1,14.6z M63.3,14.1
											  c0.4,0.4,1,0.7,1.6,0.7c0.6,0,1.2-0.2,1.6-0.7c0.4-0.5,0.7-1,0.7-1.7c0-0.7-0.2-1.3-0.7-1.7c-0.4-0.4-1-0.7-1.6-0.7
											  c-0.6,0-1.2,0.2-1.6,0.7c-0.4,0.5-0.7,1-0.7,1.7C62.6,13.1,62.8,13.7,63.3,14.1z"></path>
									<path class="st0" d="M69.1,15.4v-6H70l2.9,4.7h0l0-1.2V9.4h0.8v6h-0.8l-3.1-4.9h0l0,1.2v3.7H69.1z"></path>
									<path class="st0" d="M75.1,15.4v-6h0.8v6H75.1z M75.8,8.9h-0.7l0.4-1.1h0.8L75.8,8.9z"></path>
									<path class="st0" d="M78.7,15.4l-2.1-6h0.9l1.6,4.9h0l1.7-4.9h0.9l-2.2,6H78.7z"></path>
									<path class="st0" d="M86.1,10.1h-2.7V12h2.5v0.7h-2.5v1.9h2.7v0.7h-3.5v-6h3.5V10.1z"></path>
									<path class="st0" d="M87.3,15.4v-6H88v5.3h2.6v0.7H87.3z"></path>
									<path class="st0" d="M93.6,15.4v-6h0.9l2.9,4.7h0l0-1.2V9.4h0.8v6h-0.8l-3.1-4.9h0l0,1.2v3.7H93.6z"></path>
									<path class="st0" d="M104.5,14.6c-0.6,0.6-1.3,0.9-2.2,0.9c-0.9,0-1.6-0.3-2.2-0.9c-0.6-0.6-0.9-1.3-0.9-2.2
											  c0-0.9,0.3-1.6,0.9-2.2c0.6-0.6,1.3-0.9,2.2-0.9c0.9,0,1.6,0.3,2.2,0.9c0.6,0.6,0.9,1.3,0.9,2.2C105.4,13.3,105.1,14,104.5,14.6z
											  M100.7,14.1c0.4,0.4,1,0.7,1.6,0.7c0.6,0,1.2-0.2,1.6-0.7c0.4-0.5,0.7-1,0.7-1.7c0-0.7-0.2-1.3-0.7-1.7c-0.4-0.4-1-0.7-1.6-0.7
											  c-0.6,0-1.2,0.2-1.6,0.7c-0.4,0.5-0.7,1-0.7,1.7C100,13.1,100.2,13.7,100.7,14.1z"></path>
								  </g>
								  <g>
									<path class="st0" d="M13.3,10.2C13.3,10.2,13.3,10.2,13.3,10.2L13.3,10.2L13.3,10.2C13.3,10.2,13.3,10.2,13.3,10.2z"></path>
								  </g>
								  <g>
									<path class="st0" d="M14,35.2L14,35.2c0,0-0.1,0-0.1,0C13.9,35.2,14,35.2,14,35.2z"></path>
								  </g>
								</g>
							</svg>