<svg width="80" height="80" viewBox="0 0 80 80" fill="none" xmlns="http://www.w3.org/2000/svg"><path fill-rule="evenodd" clip-rule="evenodd" d="M16.6566 8.48681C12.1448 8.48682 8.48718 12.1444 8.48718 16.6563L8.48719 26.6604L8.48719 28.1604L11.4872 28.1604L11.4872 26.6604L11.4872 16.6563C11.4872 13.8013 13.8016 11.4868 16.6566 11.4868L33.3302 11.4868L34.8302 11.4868L34.8302 8.48681L33.3302 8.48681L16.6566 8.48681ZM71.5128 53.3315L71.5128 51.8315L68.5128 51.8315L68.5128 53.3315L68.5128 63.342C68.5128 66.197 66.1984 68.5114 63.3434 68.5114L46.6698 68.5114L45.1698 68.5114L45.1698 71.5114L46.6698 71.5114L63.3434 71.5114C67.8553 71.5114 71.5128 67.8538 71.5128 63.342L71.5128 53.3315Z" fill="url(#paint0_linear_8126_23320)"></path><path fill-rule="evenodd" clip-rule="evenodd" d="M33.3316 70.0117L11.6559 70.0117C10.7351 70.0117 9.98859 69.2652 9.98859 68.3444L9.98859 66.9905C9.99958 63.1385 13.1195 60.0186 16.9715 60.0076L28.0161 60.0076C31.8681 60.0186 34.988 63.1385 34.999 66.9905L34.999 68.3444C34.999 69.2652 34.2525 70.0117 33.3316 70.0117Z" stroke="#E1E1E6" stroke-width="3" stroke-linecap="round" stroke-linejoin="round"></path><path fill-rule="evenodd" clip-rule="evenodd" d="M66.6767 39.9987L45.001 39.9987C44.0801 39.9987 43.3336 39.2522 43.3336 38.3313L43.3336 36.9774C43.3446 33.1254 46.4645 30.0055 50.3165 29.9945L61.3611 29.9945C65.2131 30.0055 68.333 33.1254 68.344 36.9774L68.344 38.3313C68.344 39.2522 67.5975 39.9987 66.6767 39.9987Z" stroke="#E1E1E6" stroke-width="3" stroke-linecap="round" stroke-linejoin="round"></path><path fill-rule="evenodd" clip-rule="evenodd" d="M22.4924 51.6719C18.8115 51.6645 15.8326 48.6766 15.8362 44.9958C15.8399 41.315 18.8249 38.333 22.5057 38.333C26.1865 38.333 29.1714 41.315 29.1751 44.9958C29.1788 48.6766 26.1998 51.6645 22.519 51.6719L22.4924 51.6719Z" stroke="#E1E1E6" stroke-width="3" stroke-linecap="round" stroke-linejoin="round"></path><path fill-rule="evenodd" clip-rule="evenodd" d="M55.8374 21.6576C52.1566 21.6502 49.1776 18.6623 49.1813 14.9815C49.185 11.3007 52.1699 8.31873 55.8507 8.31872C59.5316 8.31872 62.5165 11.3007 62.5202 14.9815C62.5238 18.6623 59.5449 21.6502 55.8641 21.6576L55.8374 21.6576Z" stroke="#E1E1E6" stroke-width="3" stroke-linecap="round" stroke-linejoin="round"></path><defs><linearGradient id="paint0_linear_8126_23320" x1="40" y1="8.48681" x2="40" y2="71.5114" gradientUnits="userSpaceOnUse"><stop stop-color="#4863F7"></stop><stop offset="1" stop-color="#202855"></stop></linearGradient></defs></svg>