<svg width="81" height="80" viewBox="0 0 81 80" fill="none" xmlns="http://www.w3.org/2000/svg"><path d="M36.9167 57.8906L39.6434 69.4339C39.9434 70.7039 41.5201 71.1506 42.4434 70.2306L51.6234 61.0506C52.2401 60.4339 52.5934 59.5973 52.6001 58.7206L52.6901 48.3706" stroke="#E1E1E6" stroke-width="4" stroke-linecap="round" stroke-linejoin="round"></path><path d="M22.3598 43.3305L10.8165 40.6038C9.54651 40.3038 9.09984 38.7271 10.0198 37.8038L19.1998 28.6238C19.8165 28.0071 20.6532 27.6538 21.5298 27.6471L31.8798 27.5571" stroke="#E1E1E6" stroke-width="4" stroke-linecap="round" stroke-linejoin="round"></path><path d="M44.9167 15.7131C52.6201 20.9664 59.2834 27.6297 64.5368 35.3331M66.5131 29.9172L69.2065 16.9572C69.9398 13.4306 66.8198 10.3106 63.2931 11.0439L50.3331 13.7372C46.5165 14.5306 43.0165 16.4206 40.2631 19.1772L29.6298 29.8072C25.5731 33.8639 22.9331 39.1239 22.0998 44.8005L22.0631 45.0439C21.5365 48.6672 22.7498 52.3239 25.3365 54.9139C27.9231 57.5005 31.5831 58.7139 35.2065 58.1839L35.4498 58.1472C41.1265 57.3172 46.3865 54.6739 50.4431 50.6172L61.0731 39.9872C63.8298 37.2339 65.7198 33.7339 66.5131 29.9172Z" stroke="#8257E5" stroke-width="4" stroke-linecap="round" stroke-linejoin="round"></path><path d="M44.9167 15.7131C52.6201 20.9664 59.2834 27.6297 64.5368 35.3331M66.5131 29.9172L69.2065 16.9572C69.9398 13.4306 66.8198 10.3106 63.2931 11.0439L50.3331 13.7372C46.5165 14.5306 43.0165 16.4206 40.2631 19.1772L29.6298 29.8072C25.5731 33.8639 22.9331 39.1239 22.0998 44.8005L22.0631 45.0439C21.5365 48.6672 22.7498 52.3239 25.3365 54.9139C27.9231 57.5005 31.5831 58.7139 35.2065 58.1839L35.4498 58.1472C41.1265 57.3172 46.3865 54.6739 50.4431 50.6172L61.0731 39.9872C63.8298 37.2339 65.7198 33.7339 66.5131 29.9172Z" stroke="url(#minimalistRocket0_linear)" stroke-width="4" stroke-linecap="round" stroke-linejoin="round"></path><path d="M32.25 48L16.25 64" stroke="url(#minimalistRocket1_linear)" stroke-width="4" stroke-linecap="square" stroke-linejoin="round"></path><defs><linearGradient id="minimalistRocket0_linear" x1="45.6283" y1="10.936" x2="45.6283" y2="58.3061" gradientUnits="userSpaceOnUse"><stop stop-color="#8257E5"></stop><stop offset="1" stop-color="#8257E5" stop-opacity="0.25"></stop></linearGradient><linearGradient id="minimalistRocket1_linear" x1="22.0209" y1="58.1839" x2="12.1312" y2="67.4399" gradientUnits="userSpaceOnUse"><stop stop-color="#04CD60"></stop><stop offset="1" stop-color="#04CD60" stop-opacity="0"></stop></linearGradient></defs></svg>